<?xml version="1.0" encoding="utf-8"?>
<!-- Generator: Adobe Illustrator 15.1.0, SVG Export Plug-In . SVG Version: 6.00 Build 0)  -->
<!DOCTYPE svg PUBLIC "-//W3C//DTD SVG 1.1//EN" "http://www.w3.org/Graphics/SVG/1.1/DTD/svg11.dtd">
<svg version="1.1" id="Layer_1" xmlns="http://www.w3.org/2000/svg" xmlns:xlink="http://www.w3.org/1999/xlink" x="0px" y="0px"
	 width="1000px" height="480px" viewBox="0 0 1000 480" enable-background="new 0 0 1000 480" xml:space="preserve">
<path d="M983.063,20.344c-3.318-4.948-9.15-8.242-15.81-8.242c-6.516,0-12.247,3.148-15.601,7.917
	c-3.354-4.77-9.086-7.917-15.602-7.917c-6.515,0-12.247,3.148-15.6,7.917c-3.354-4.769-9.086-7.917-15.602-7.917
	c-6.515,0-12.247,3.147-15.601,7.917c-3.354-4.77-9.086-7.917-15.602-7.917s-12.247,3.148-15.6,7.917
	c-3.354-4.769-9.086-7.917-15.602-7.917c-6.515,0-12.247,3.148-15.601,7.917c-3.354-4.77-9.086-7.917-15.602-7.917
	s-12.247,3.148-15.6,7.917c-3.354-4.77-9.087-7.917-15.603-7.917c-6.514,0-12.247,3.148-15.6,7.917
	c-3.354-4.769-9.086-7.917-15.602-7.917c-6.514,0-12.247,3.147-15.601,7.917c-3.354-4.77-9.086-7.917-15.602-7.917
	c-6.515,0-12.247,3.148-15.6,7.917c-3.354-4.769-9.086-7.917-15.602-7.917c-6.515,0-12.247,3.148-15.601,7.917
	c-3.354-4.77-9.086-7.917-15.602-7.917c-6.515,0-12.247,3.148-15.6,7.917c-3.354-4.77-9.087-7.917-15.603-7.917
	c-6.514,0-12.247,3.148-15.6,7.917c-3.354-4.769-9.086-7.917-15.602-7.917c-6.514,0-12.247,3.147-15.601,7.917
	c-3.354-4.77-9.086-7.917-15.602-7.917c-6.515,0-12.247,3.148-15.6,7.917c-3.354-4.769-9.086-7.917-15.602-7.917
	c-6.515,0-12.247,3.148-15.601,7.917c-3.354-4.77-9.086-7.917-15.601-7.917c-6.515,0-12.248,3.148-15.601,7.917
	c-3.353-4.77-9.085-7.917-15.601-7.917s-12.248,3.148-15.601,7.917c-3.353-4.77-9.086-7.917-15.601-7.917
	c-6.515,0-12.248,3.148-15.601,7.917c-3.353-4.77-9.086-7.917-15.601-7.917s-12.248,3.148-15.601,7.917
	c-3.354-4.77-9.086-7.917-15.601-7.917s-12.248,3.147-15.601,7.917c-3.353-4.77-9.085-7.917-15.601-7.917
	s-12.248,3.148-15.601,7.917c-3.353-4.77-9.085-7.917-15.601-7.917c-6.515,0-12.248,3.148-15.601,7.917
	c-3.353-4.77-9.085-7.917-15.601-7.917c-6.515,0-12.247,3.148-15.601,7.917c-3.353-4.77-9.085-7.917-15.601-7.917
	c-6.515,0-12.247,3.148-15.601,7.917c-3.354-4.77-9.085-7.917-15.601-7.917c-6.516,0-12.248,3.147-15.601,7.917
	c-3.354-4.77-9.086-7.917-15.601-7.917c-6.516,0-12.248,3.148-15.601,7.917c-3.353-4.77-9.085-7.917-15.601-7.917
	c-6.516,0-12.248,3.148-15.601,7.917c-3.353-4.77-9.086-7.917-15.601-7.917c-6.516,0-12.248,3.148-15.601,7.917
	c-3.353-4.77-9.086-7.917-15.601-7.917S81.357,15.25,78.004,20.02c-3.354-4.77-9.086-7.917-15.601-7.917s-12.248,3.147-15.601,7.917
	c-3.353-4.77-9.086-7.917-15.601-7.917c-6.515,0-12.248,3.148-15.601,7.917C12.248,15.25,6.515,12.102,0,12.102v455.796
	c6.515,0,12.248-3.147,15.601-7.917c3.353,4.77,9.086,7.917,15.601,7.917c6.515,0,12.248-3.147,15.601-7.917
	c3.354,4.77,9.086,7.917,15.601,7.917s12.248-3.147,15.601-7.917c3.353,4.77,9.085,7.917,15.601,7.917s12.248-3.147,15.601-7.917
	c3.353,4.77,9.085,7.917,15.601,7.917c6.515,0,12.248-3.147,15.601-7.917c3.353,4.77,9.085,7.917,15.601,7.917
	c6.515,0,12.248-3.147,15.601-7.917c3.353,4.77,9.085,7.917,15.601,7.917c6.515,0,12.247-3.147,15.601-7.917
	c3.354,4.77,9.085,7.917,15.601,7.917c6.515,0,12.247-3.147,15.601-7.917c3.354,4.77,9.085,7.917,15.601,7.917
	c6.516,0,12.248-3.147,15.601-7.917c3.354,4.77,9.086,7.917,15.601,7.917c6.516,0,12.248-3.147,15.601-7.917
	c3.354,4.77,9.086,7.917,15.601,7.917c6.516,0,12.248-3.147,15.601-7.917c3.353,4.77,9.086,7.917,15.601,7.917
	s12.248-3.147,15.601-7.917c3.354,4.77,9.086,7.917,15.601,7.917s12.248-3.147,15.601-7.917c3.353,4.77,9.085,7.917,15.601,7.917
	s12.248-3.147,15.601-7.917c3.353,4.77,9.086,7.917,15.601,7.917c6.515,0,12.248-3.147,15.601-7.917
	c3.353,4.77,9.086,7.917,15.601,7.917s12.248-3.147,15.601-7.917c3.353,4.77,9.086,7.917,15.601,7.917
	c6.515,0,12.248-3.147,15.601-7.917c3.354,4.77,9.086,7.917,15.601,7.917c6.516,0,12.248-3.147,15.602-7.917
	c3.353,4.77,9.085,7.917,15.6,7.917c6.516,0,12.248-3.147,15.602-7.917c3.354,4.77,9.087,7.917,15.601,7.917
	c6.516,0,12.248-3.147,15.602-7.917c3.353,4.77,9.086,7.917,15.6,7.917c6.516,0,12.249-3.147,15.603-7.917
	c3.353,4.77,9.085,7.917,15.6,7.917c6.516,0,12.248-3.147,15.602-7.917c3.354,4.77,9.086,7.917,15.601,7.917
	c6.516,0,12.248-3.147,15.602-7.917c3.353,4.77,9.085,7.917,15.6,7.917c6.516,0,12.248-3.147,15.602-7.917
	c3.354,4.77,9.087,7.917,15.601,7.917c6.516,0,12.248-3.147,15.602-7.917c3.353,4.77,9.086,7.917,15.6,7.917
	c6.516,0,12.249-3.147,15.603-7.917c3.353,4.77,9.084,7.917,15.6,7.917s12.248-3.147,15.602-7.917
	c3.354,4.77,9.086,7.917,15.601,7.917c6.516,0,12.248-3.147,15.602-7.917c3.353,4.77,9.084,7.917,15.6,7.917
	s12.247-3.147,15.602-7.917c3.354,4.77,9.086,7.917,15.601,7.917c6.516,0,12.248-3.147,15.602-7.917
	c3.353,4.77,9.085,7.917,15.6,7.917c6.516,0,12.248-3.147,15.602-7.917c3.354,4.77,9.085,7.917,15.601,7.917
	c6.659,0,12.491-3.294,15.81-8.242c3.319,4.948,9.15,8.242,15.81,8.242V12.102C992.213,12.102,986.382,15.396,983.063,20.344z"/>
</svg>
